<svg xmlns="http://www.w3.org/2000/svg" width="41" height="40" viewBox="0 0 41 40" fill="none">
  <rect width="41" height="40" rx="4" fill="white"/>
  <path d="M15.6646 24.2931C15.7654 24.3941 15.8975 24.4444 16.0295 24.4444C16.1616 24.4444 16.2936 24.3941 16.3944 24.2931L24.455 16.2103V23.9272C24.455 24.213 24.686 24.4444 24.9708 24.4444C25.2556 24.4444 25.4866 24.213 25.4866 23.9272V14.9617C25.4866 14.6758 25.2556 14.4444 24.9708 14.4444H16.0295C15.7444 14.4444 15.5137 14.6758 15.5137 14.9617C15.5137 15.2475 15.7444 15.4789 16.0295 15.4789H23.7255L15.6646 23.5613C15.4634 23.7634 15.4634 24.091 15.6646 24.2931L15.6646 24.2931Z" fill="black"/>
</svg>