<svg width="14" height="17" viewBox="0 0 14 17" fill="none" xmlns="http://www.w3.org/2000/svg">
<path d="M8.38086 2.34357C8.57721 2.34357 8.76553 2.42773 8.88184 2.57501L10.1182 4.12384H10.1191C10.2466 4.28538 10.2716 4.49118 10.1836 4.67365C10.0844 4.88083 9.8602 5.00948 9.61523 5.00958H2.89355C2.55563 5.00952 2.27355 4.76444 2.27344 4.45099V2.90216C2.27368 2.58868 2.55823 2.34363 2.89355 2.34357H8.38086ZM2.89453 2.84161C2.85517 2.84161 2.82245 2.85336 2.80078 2.86798C2.77755 2.88379 2.77344 2.8985 2.77344 2.90216V4.45001C2.7735 4.45237 2.77713 4.46688 2.80078 4.48322C2.82267 4.49823 2.85559 4.50958 2.89453 4.50958H9.61523C9.68752 4.50958 9.72467 4.47659 9.73535 4.45587L9.73633 4.4549C9.73788 4.45206 9.73811 4.44986 9.73828 4.44904V4.44806C9.73823 4.44776 9.73814 4.44375 9.73145 4.43634L9.72949 4.43439L8.49316 2.88556C8.47498 2.86261 8.43116 2.84161 8.37891 2.84161H2.89453Z" fill="#EAAF0F" stroke="#EAAF0F" stroke-width="0.1"/>
<path d="M9.28223 6.76624C9.49163 6.62949 9.77513 6.65203 9.95801 6.83459H9.95898C10.1674 7.04569 10.167 7.38731 9.95801 7.59631L8.62695 8.92834H8.62598C8.61877 8.93521 8.61313 8.94596 8.6123 8.95862L8.61328 12.1188C8.61331 12.1275 8.61833 12.1394 8.625 12.1461L9.95703 13.4781L10.0254 13.5631C10.1622 13.7725 10.1396 14.056 9.95703 14.2389V14.2399C9.74594 14.4483 9.40431 14.4479 9.19531 14.2389L7.86328 12.9078C7.85606 12.9006 7.84637 12.8961 7.83594 12.8961H4.67285C4.66409 12.8962 4.65219 12.9012 4.64551 12.9078L3.31348 14.2389C3.20949 14.3446 3.06997 14.3961 2.93359 14.3961C2.83057 14.3961 2.72798 14.3671 2.63867 14.3082L2.55371 14.2389C2.34541 14.0278 2.3449 13.6871 2.55371 13.4781L3.88574 12.1461C3.89294 12.1389 3.89744 12.1292 3.89746 12.1188V8.95569C3.89746 8.947 3.89236 8.93509 3.88574 8.92834L2.55371 7.59631C2.34525 7.38522 2.34471 7.0436 2.55371 6.83459L2.6377 6.76819C2.84529 6.63573 3.1382 6.65737 3.31543 6.83459L4.64746 8.16663C4.65467 8.17374 4.66444 8.17834 4.6748 8.17834H7.83789C7.84664 8.17832 7.85854 8.1733 7.86523 8.16663L9.19727 6.83459L9.28223 6.76624ZM9.54688 7.18616L8.21484 8.51819C8.11575 8.61637 7.97645 8.67542 7.83496 8.67542H4.67188C4.52827 8.67533 4.3928 8.619 4.29199 8.51819L2.96094 7.18616C2.95112 7.17634 2.93878 7.17444 2.93262 7.17444C2.92647 7.17451 2.91479 7.17596 2.90527 7.18518C2.88866 7.20284 2.89039 7.22879 2.90527 7.24377L4.2373 8.57581L4.30469 8.65784C4.36288 8.74514 4.39453 8.84789 4.39453 8.95569V12.1178C4.39453 12.2598 4.33824 12.3967 4.2373 12.4977L2.90527 13.8297C2.89085 13.8438 2.8895 13.8705 2.9043 13.8864C2.92194 13.9032 2.94781 13.9022 2.96289 13.8873L4.29492 12.5553C4.39644 12.4546 4.53096 12.3981 4.6748 12.3981H7.83691C7.97896 12.3981 8.11585 12.4544 8.2168 12.5553L9.54785 13.8864L9.57812 13.899C9.5883 13.899 9.59802 13.8945 9.60547 13.8873L9.61816 13.858C9.61821 13.8476 9.61391 13.8373 9.60645 13.8297L8.27441 12.4977C8.17314 12.3988 8.11708 12.2599 8.11523 12.1198V8.95569C8.11523 8.81207 8.17171 8.67666 8.27246 8.57581L9.60352 7.24475C9.62045 7.22704 9.61955 7.20122 9.60449 7.18616C9.58683 7.17013 9.56167 7.17136 9.54688 7.18616Z" fill="#EAAF0F" stroke="#EAAF0F" stroke-width="0.1"/>
<path d="M5.98047 9.30896C6.1328 9.15774 6.37868 9.15736 6.53027 9.30896L7.4834 10.264L7.53223 10.3236C7.57456 10.3869 7.59666 10.4608 7.59668 10.5394C7.59668 10.6442 7.55525 10.7428 7.4834 10.8148L6.53125 11.767C6.45688 11.8404 6.36075 11.8812 6.25586 11.8812C6.15107 11.8812 6.05255 11.8389 5.98047 11.767L5.02734 10.8138H5.02637C4.95288 10.7394 4.91309 10.6424 4.91309 10.5375C4.91321 10.4327 4.95535 10.3341 5.02734 10.2621L5.98047 9.30896ZM5.45508 10.5375L6.25391 11.3363L7.05273 10.5375L6.25391 9.73865L5.45508 10.5375Z" fill="#EAAF0F" stroke="#EAAF0F" stroke-width="0.1"/>
<path d="M11.2207 0.116577C11.3794 0.013083 11.596 0.0300089 11.7344 0.168335L13.0293 1.46326V1.46423C13.1891 1.62594 13.1899 1.88361 13.0293 2.04333L13.0283 2.04236L12.4814 2.59119C12.4027 2.66998 12.2958 2.71126 12.1914 2.7113C12.1579 2.7113 12.1259 2.7048 12.0938 2.69568L11.7197 3.0697L12.0986 3.44861C12.2552 3.60521 12.3418 3.81569 12.3418 4.0365V15.6107C12.3417 16.0677 11.9693 16.4425 11.5098 16.4427H0.881836C0.424754 16.4427 0.0498747 16.0704 0.0498047 15.6107V1.61072C0.0498047 1.15359 0.422109 0.778687 0.881836 0.778687L9.08398 0.779663C9.30655 0.779663 9.51571 0.866663 9.67383 1.02478L10.126 1.47693L10.502 1.10095C10.4703 0.966363 10.5034 0.821994 10.6064 0.717163V0.716187L11.1562 0.168335L11.2207 0.116577ZM0.881836 1.27576C0.697824 1.27576 0.546875 1.42767 0.546875 1.61169V15.6117C0.547044 15.7956 0.697916 15.9467 0.881836 15.9467H11.5088C11.6927 15.9467 11.8446 15.7956 11.8447 15.6117V4.03845C11.8447 3.95007 11.809 3.86502 11.7451 3.80115L9.32324 1.37537C9.2586 1.31155 9.17453 1.27588 9.08398 1.27576H0.881836ZM10.4775 1.82654L11.3701 2.71716L11.6973 2.39099L10.8057 1.49939L10.4775 1.82654ZM11.0176 1.00525L12.1895 2.17712L12.6133 1.7533L11.4414 0.581421L11.0176 1.00525Z" fill="#EAAF0F" stroke="#EAAF0F" stroke-width="0.1"/>
</svg>
