<svg xmlns="http://www.w3.org/2000/svg" width="37" height="36" viewBox="0 0 37 36" fill="none">
  <rect width="37" height="36" rx="4" fill="white"/>
  <path d="M13.9795 15.1962C14.1991 19.9313 15.6782 22.7792 18.5009 23.9024C21.3238 22.779 22.8027 19.9313 23.0223 15.1962C21.8492 14.8667 20.1125 14.2677 18.5009 13.2838C16.8892 14.2677 15.1524 14.8667 13.9795 15.1962Z" fill="#445641"/>
  <path d="M24.7332 13.6052C24.6982 13.5988 21.2007 12.9443 18.695 11.065C18.5794 10.9783 18.4204 10.9783 18.305 11.065C15.7993 12.9443 12.3019 13.5988 12.2668 13.6052C12.1123 13.6335 12 13.768 12 13.925C12 20.5668 14.1542 24.6075 18.4031 25.9353C18.4347 25.9451 18.4674 25.95 18.5 25.95C18.5326 25.95 18.5653 25.9451 18.5969 25.9353C22.8456 24.6075 25 20.5668 25 13.925C25 13.7681 24.8877 13.6335 24.7332 13.6052ZM18.7402 24.5065C18.664 24.537 18.5829 24.5526 18.5 24.5526C18.4171 24.5526 18.336 24.537 18.2594 24.5065C15.1746 23.2791 13.5619 20.2437 13.3291 15.2266C13.3151 14.9227 13.5097 14.653 13.8025 14.5707C14.9364 14.2523 16.6129 13.6744 18.1613 12.7292C18.3702 12.6016 18.6298 12.6014 18.8389 12.7292C20.3869 13.6742 22.0634 14.2521 23.1972 14.5703C23.4901 14.6528 23.6846 14.9225 23.6707 15.2264C23.4381 20.2435 21.8252 23.2791 18.7402 24.5065Z" fill="#445641"/>
</svg>