<svg xmlns="http://www.w3.org/2000/svg" width="38" height="38" viewBox="0 0 38 38" fill="none">
  <rect width="38" height="38" rx="4" fill="white" fill-opacity="0.5"/>
  <path d="M28.625 15.9063C28.557 15.9063 28.4906 15.9264 28.434 15.9642C28.3775 16.002 28.3334 16.0556 28.3074 16.1185C28.2814 16.1813 28.2746 16.2504 28.2879 16.3171C28.3011 16.3837 28.3339 16.445 28.3819 16.4931C28.43 16.5411 28.4913 16.5739 28.5579 16.5871C28.6246 16.6004 28.6937 16.5936 28.7565 16.5676C28.8194 16.5416 28.873 16.4975 28.9108 16.441C28.9486 16.3844 28.9688 16.318 28.9688 16.25C28.9688 16.2049 28.9599 16.1601 28.9426 16.1184C28.9254 16.0767 28.9 16.0388 28.8681 16.0069C28.8362 15.975 28.7983 15.9496 28.7566 15.9324C28.7149 15.9151 28.6701 15.9062 28.625 15.9063Z" fill="black"/>
  <path d="M28.625 13.1563C28.557 13.1563 28.4906 13.1764 28.434 13.2142C28.3775 13.252 28.3334 13.3056 28.3074 13.3685C28.2814 13.4313 28.2746 13.5004 28.2879 13.5671C28.3011 13.6337 28.3339 13.695 28.3819 13.7431C28.43 13.7911 28.4913 13.8239 28.5579 13.8371C28.6246 13.8504 28.6937 13.8436 28.7565 13.8176C28.8194 13.7916 28.873 13.7475 28.9108 13.691C28.9486 13.6344 28.9688 13.568 28.9688 13.5C28.9688 13.4549 28.9599 13.4101 28.9426 13.3684C28.9254 13.3267 28.9 13.2888 28.8681 13.2569C28.8362 13.225 28.7983 13.1996 28.7566 13.1824C28.7149 13.1651 28.6701 13.1562 28.625 13.1563Z" fill="black"/>
  <path d="M28.625 11.7813C28.557 11.7813 28.4906 11.8014 28.434 11.8392C28.3775 11.877 28.3334 11.9306 28.3074 11.9935C28.2814 12.0563 28.2746 12.1254 28.2879 12.1921C28.3011 12.2587 28.3339 12.32 28.3819 12.3681C28.43 12.4161 28.4913 12.4489 28.5579 12.4621C28.6246 12.4754 28.6937 12.4686 28.7565 12.4426C28.8194 12.4166 28.873 12.3725 28.9108 12.316C28.9486 12.2594 28.9688 12.193 28.9688 12.125C28.9688 12.0799 28.9599 12.0351 28.9426 11.9934C28.9254 11.9517 28.9 11.9138 28.8681 11.8819C28.8362 11.85 28.7983 11.8246 28.7566 11.8074C28.7149 11.7901 28.6701 11.7812 28.625 11.7813Z" fill="black"/>
  <path d="M28.625 17.2813C28.557 17.2813 28.4906 17.3014 28.434 17.3392C28.3775 17.377 28.3334 17.4306 28.3074 17.4935C28.2814 17.5563 28.2746 17.6254 28.2879 17.6921C28.3011 17.7587 28.3339 17.82 28.3819 17.8681C28.43 17.9161 28.4913 17.9489 28.5579 17.9621C28.6246 17.9754 28.6937 17.9686 28.7565 17.9426C28.8194 17.9166 28.873 17.8725 28.9108 17.816C28.9486 17.7594 28.9688 17.693 28.9688 17.625C28.9688 17.5799 28.9599 17.5351 28.9426 17.4934C28.9254 17.4517 28.9 17.4138 28.8681 17.3819C28.8362 17.35 28.7983 17.3246 28.7566 17.3074C28.7149 17.2901 28.6701 17.2812 28.625 17.2813Z" fill="black"/>
  <path d="M28.625 14.5313C28.557 14.5313 28.4906 14.5514 28.434 14.5892C28.3775 14.627 28.3334 14.6806 28.3074 14.7435C28.2814 14.8063 28.2746 14.8754 28.2879 14.9421C28.3011 15.0087 28.3339 15.07 28.3819 15.1181C28.43 15.1661 28.4913 15.1989 28.5579 15.2121C28.6246 15.2254 28.6937 15.2186 28.7565 15.1926C28.8194 15.1666 28.873 15.1225 28.9108 15.066C28.9486 15.0094 28.9688 14.943 28.9688 14.875C28.9688 14.8299 28.9599 14.7851 28.9426 14.7434C28.9254 14.7017 28.9 14.6638 28.8681 14.6319C28.8362 14.6 28.7983 14.5746 28.7566 14.5574C28.7149 14.5401 28.6701 14.5312 28.625 14.5313Z" fill="black"/>
  <path d="M28.625 24.1563C28.557 24.1563 28.4906 24.1764 28.434 24.2142C28.3775 24.252 28.3334 24.3056 28.3074 24.3685C28.2814 24.4313 28.2746 24.5004 28.2879 24.5671C28.3011 24.6337 28.3339 24.695 28.3819 24.7431C28.43 24.7911 28.4913 24.8239 28.5579 24.8371C28.6246 24.8504 28.6937 24.8436 28.7565 24.8176C28.8194 24.7916 28.873 24.7475 28.9108 24.691C28.9486 24.6344 28.9688 24.568 28.9688 24.5C28.9688 24.4549 28.9599 24.4101 28.9426 24.3684C28.9254 24.3267 28.9 24.2888 28.8681 24.2569C28.8362 24.225 28.7983 24.1996 28.7566 24.1824C28.7149 24.1651 28.6701 24.1562 28.625 24.1563Z" fill="black"/>
  <path d="M28.625 18.6563C28.557 18.6563 28.4906 18.6764 28.434 18.7142C28.3775 18.752 28.3334 18.8056 28.3074 18.8685C28.2814 18.9313 28.2746 19.0004 28.2879 19.0671C28.3011 19.1337 28.3339 19.195 28.3819 19.2431C28.43 19.2911 28.4913 19.3239 28.5579 19.3371C28.6246 19.3504 28.6937 19.3436 28.7565 19.3176C28.8194 19.2916 28.873 19.2475 28.9108 19.191C28.9486 19.1344 28.9688 19.068 28.9688 19C28.9688 18.9549 28.9599 18.9101 28.9426 18.8684C28.9254 18.8267 28.9 18.7888 28.8681 18.7569C28.8362 18.725 28.7983 18.6996 28.7566 18.6824C28.7149 18.6651 28.6701 18.6562 28.625 18.6563Z" fill="black"/>
  <path d="M28.625 22.7813C28.557 22.7813 28.4906 22.8014 28.434 22.8392C28.3775 22.877 28.3334 22.9306 28.3074 22.9935C28.2814 23.0563 28.2746 23.1254 28.2879 23.1921C28.3011 23.2587 28.3339 23.32 28.3819 23.3681C28.43 23.4161 28.4913 23.4489 28.5579 23.4621C28.6246 23.4754 28.6937 23.4686 28.7565 23.4426C28.8194 23.4166 28.873 23.3725 28.9108 23.316C28.9486 23.2594 28.9688 23.193 28.9688 23.125C28.9688 23.0799 28.9599 23.0351 28.9426 22.9934C28.9254 22.9517 28.9 22.9138 28.8681 22.8819C28.8362 22.85 28.7983 22.8246 28.7566 22.8074C28.7149 22.7901 28.6701 22.7812 28.625 22.7813Z" fill="black"/>
  <path d="M28.625 20.0313C28.557 20.0313 28.4906 20.0514 28.434 20.0892C28.3775 20.127 28.3334 20.1806 28.3074 20.2435C28.2814 20.3063 28.2746 20.3754 28.2879 20.4421C28.3011 20.5087 28.3339 20.57 28.3819 20.6181C28.43 20.6661 28.4913 20.6989 28.5579 20.7121C28.6246 20.7254 28.6937 20.7186 28.7565 20.6926C28.8194 20.6666 28.873 20.6225 28.9108 20.566C28.9486 20.5094 28.9688 20.443 28.9688 20.375C28.9688 20.3299 28.9599 20.2851 28.9426 20.2434C28.9254 20.2017 28.9 20.1638 28.8681 20.1319C28.8362 20.1 28.7983 20.0746 28.7566 20.0574C28.7149 20.0401 28.6701 20.0312 28.625 20.0313Z" fill="black"/>
  <path d="M28.625 21.4063C28.557 21.4063 28.4906 21.4264 28.434 21.4642C28.3775 21.502 28.3334 21.5556 28.3074 21.6185C28.2814 21.6813 28.2746 21.7504 28.2879 21.8171C28.3011 21.8837 28.3339 21.945 28.3819 21.9931C28.43 22.0411 28.4913 22.0739 28.5579 22.0871C28.6246 22.1004 28.6937 22.0936 28.7565 22.0676C28.8194 22.0416 28.873 21.9975 28.9108 21.941C28.9486 21.8844 28.9688 21.818 28.9688 21.75C28.9688 21.7049 28.9599 21.6601 28.9426 21.6184C28.9254 21.5767 28.9 21.5388 28.8681 21.5069C28.8362 21.475 28.7983 21.4496 28.7566 21.4324C28.7149 21.4151 28.6701 21.4062 28.625 21.4063Z" fill="black"/>
  <path d="M28.625 25.5313C28.557 25.5313 28.4906 25.5514 28.434 25.5892C28.3775 25.627 28.3334 25.6806 28.3074 25.7435C28.2814 25.8063 28.2746 25.8754 28.2879 25.9421C28.3011 26.0087 28.3339 26.07 28.3819 26.1181C28.43 26.1661 28.4913 26.1989 28.5579 26.2121C28.6246 26.2254 28.6937 26.2186 28.7565 26.1926C28.8194 26.1666 28.873 26.1225 28.9108 26.066C28.9486 26.0094 28.9688 25.943 28.9688 25.875C28.9688 25.8299 28.9599 25.7851 28.9426 25.7434C28.9254 25.7017 28.9 25.6638 28.8681 25.6319C28.8362 25.6 28.7983 25.5746 28.7566 25.5574C28.7149 25.5401 28.6701 25.5312 28.625 25.5313Z" fill="black"/>
  <path d="M12.125 28.2812C12.057 28.2812 11.9906 28.3014 11.934 28.3392C11.8775 28.377 11.8334 28.4306 11.8074 28.4935C11.7814 28.5563 11.7746 28.6254 11.7879 28.6921C11.8011 28.7587 11.8339 28.82 11.8819 28.8681C11.93 28.9161 11.9913 28.9489 12.0579 28.9621C12.1246 28.9754 12.1937 28.9686 12.2565 28.9426C12.3194 28.9166 12.373 28.8725 12.4108 28.816C12.4486 28.7594 12.4688 28.693 12.4688 28.625C12.4685 28.5339 12.4322 28.4466 12.3678 28.3822C12.3034 28.3178 12.2161 28.2815 12.125 28.2812Z" fill="black"/>
  <path d="M23.125 28.9688C23.3148 28.9688 23.4688 28.8148 23.4688 28.625C23.4688 28.4352 23.3148 28.2812 23.125 28.2812C22.9352 28.2812 22.7812 28.4352 22.7812 28.625C22.7812 28.8148 22.9352 28.9688 23.125 28.9688Z" fill="black"/>
  <path d="M19 28.2812C18.932 28.2812 18.8656 28.3014 18.809 28.3392C18.7525 28.377 18.7084 28.4306 18.6824 28.4935C18.6564 28.5563 18.6496 28.6254 18.6629 28.6921C18.6761 28.7587 18.7089 28.82 18.7569 28.8681C18.805 28.9161 18.8663 28.9489 18.9329 28.9621C18.9996 28.9754 19.0687 28.9686 19.1315 28.9426C19.1944 28.9166 19.248 28.8725 19.2858 28.816C19.3236 28.7594 19.3438 28.693 19.3438 28.625C19.3435 28.5339 19.3072 28.4466 19.2428 28.3822C19.1784 28.3178 19.0911 28.2815 19 28.2812Z" fill="black"/>
  <path d="M20.375 28.2813C20.307 28.2813 20.2406 28.3014 20.184 28.3392C20.1275 28.377 20.0834 28.4306 20.0574 28.4935C20.0314 28.5563 20.0246 28.6254 20.0379 28.6921C20.0511 28.7587 20.0839 28.82 20.1319 28.8681C20.18 28.9161 20.2413 28.9489 20.3079 28.9621C20.3746 28.9754 20.4437 28.9686 20.5065 28.9426C20.5694 28.9166 20.623 28.8725 20.6608 28.816C20.6986 28.7594 20.7188 28.693 20.7188 28.625C20.7188 28.5799 20.7099 28.5351 20.6926 28.4934C20.6754 28.4517 20.6501 28.4138 20.6181 28.3819C20.5862 28.3499 20.5483 28.3246 20.5066 28.3074C20.4649 28.2901 20.4201 28.2812 20.375 28.2813Z" fill="black"/>
  <path d="M25.875 28.2812C25.807 28.2812 25.7406 28.3014 25.684 28.3392C25.6275 28.377 25.5834 28.4306 25.5574 28.4935C25.5314 28.5563 25.5246 28.6254 25.5379 28.6921C25.5511 28.7587 25.5839 28.82 25.6319 28.8681C25.68 28.9161 25.7413 28.9489 25.8079 28.9621C25.8746 28.9754 25.9437 28.9686 26.0065 28.9426C26.0694 28.9166 26.123 28.8725 26.1608 28.816C26.1986 28.7594 26.2188 28.693 26.2188 28.625C26.2185 28.5339 26.1822 28.4466 26.1178 28.3822C26.0534 28.3178 25.9661 28.2815 25.875 28.2812Z" fill="black"/>
  <path d="M24.5 28.9688C24.6898 28.9688 24.8438 28.8148 24.8438 28.625C24.8438 28.4352 24.6898 28.2812 24.5 28.2812C24.3102 28.2812 24.1562 28.4352 24.1562 28.625C24.1562 28.8148 24.3102 28.9688 24.5 28.9688Z" fill="black"/>
  <path d="M21.75 28.2813C21.682 28.2813 21.6156 28.3014 21.559 28.3392C21.5025 28.377 21.4584 28.4306 21.4324 28.4935C21.4064 28.5563 21.3996 28.6254 21.4129 28.6921C21.4261 28.7587 21.4589 28.82 21.5069 28.8681C21.555 28.9161 21.6163 28.9489 21.6829 28.9621C21.7496 28.9754 21.8187 28.9686 21.8815 28.9426C21.9444 28.9166 21.998 28.8725 22.0358 28.816C22.0736 28.7594 22.0938 28.693 22.0938 28.625C22.0938 28.5799 22.0849 28.5351 22.0676 28.4934C22.0504 28.4517 22.0251 28.4138 21.9931 28.3819C21.9612 28.3499 21.9233 28.3246 21.8816 28.3074C21.8399 28.2901 21.7951 28.2812 21.75 28.2813Z" fill="black"/>
  <path d="M14.875 28.2813C14.807 28.2813 14.7406 28.3014 14.684 28.3392C14.6275 28.377 14.5834 28.4306 14.5574 28.4935C14.5314 28.5563 14.5246 28.6254 14.5379 28.6921C14.5511 28.7587 14.5839 28.82 14.6319 28.8681C14.68 28.9161 14.7413 28.9489 14.8079 28.9621C14.8746 28.9754 14.9437 28.9686 15.0065 28.9426C15.0694 28.9166 15.123 28.8725 15.1608 28.816C15.1986 28.7594 15.2188 28.693 15.2188 28.625C15.2188 28.5799 15.2099 28.5351 15.1926 28.4934C15.1754 28.4517 15.1501 28.4138 15.1181 28.3819C15.0862 28.3499 15.0483 28.3246 15.0066 28.3074C14.9649 28.2901 14.9201 28.2812 14.875 28.2813Z" fill="black"/>
  <path d="M17.625 28.9688C17.8148 28.9688 17.9688 28.8148 17.9688 28.625C17.9688 28.4352 17.8148 28.2812 17.625 28.2812C17.4352 28.2812 17.2812 28.4352 17.2812 28.625C17.2812 28.8148 17.4352 28.9688 17.625 28.9688Z" fill="black"/>
  <path d="M13.5 28.2812C13.432 28.2812 13.3656 28.3014 13.309 28.3392C13.2525 28.377 13.2084 28.4306 13.1824 28.4935C13.1564 28.5563 13.1496 28.6254 13.1629 28.6921C13.1761 28.7587 13.2089 28.82 13.2569 28.8681C13.305 28.9161 13.3663 28.9489 13.4329 28.9621C13.4996 28.9754 13.5687 28.9686 13.6315 28.9426C13.6944 28.9166 13.748 28.8725 13.7858 28.816C13.8236 28.7594 13.8438 28.693 13.8438 28.625C13.8435 28.5339 13.8072 28.4466 13.7428 28.3822C13.6784 28.3178 13.5911 28.2815 13.5 28.2812Z" fill="black"/>
  <path d="M16.25 28.9688C16.4398 28.9688 16.5938 28.8148 16.5938 28.625C16.5938 28.4352 16.4398 28.2812 16.25 28.2812C16.0602 28.2812 15.9062 28.4352 15.9062 28.625C15.9062 28.8148 16.0602 28.9688 16.25 28.9688Z" fill="black"/>
  <path d="M24.3163 23.8949L24.0007 22.7235C23.9784 22.6401 23.9255 22.5681 23.8525 22.522C23.7794 22.4759 23.6917 22.459 23.6068 22.4747C23.5219 22.4905 23.446 22.5376 23.3943 22.6068C23.3426 22.676 23.319 22.7622 23.328 22.8481L15.1344 14.6961C15.2205 14.7092 15.3083 14.689 15.3801 14.6398C15.4519 14.5905 15.5023 14.5157 15.521 14.4307C15.5397 14.3456 15.5254 14.2567 15.4809 14.1818C15.4364 14.1069 15.3651 14.0518 15.2815 14.0275L14.112 13.6856C14.0541 13.6687 13.9928 13.6673 13.9341 13.6816C13.8755 13.6959 13.8217 13.7254 13.7781 13.7671C13.7345 13.8088 13.7026 13.8612 13.6857 13.9191C13.6687 13.9771 13.6674 14.0384 13.6817 14.097L13.969 15.2755C13.9891 15.3583 14.0394 15.4307 14.1099 15.4786C14.1805 15.5264 14.2663 15.5464 14.3507 15.5345C14.4352 15.5226 14.5122 15.4797 14.5668 15.4143C14.6214 15.3488 14.6497 15.2653 14.6462 15.1801L22.8365 23.3288C22.7508 23.3212 22.6655 23.3461 22.5973 23.3985C22.5291 23.4508 22.483 23.5269 22.4682 23.6115C22.4534 23.6962 22.4708 23.7834 22.5172 23.8558C22.5635 23.9282 22.6353 23.9806 22.7184 24.0027L23.8958 24.3165C23.9541 24.3321 24.0155 24.332 24.0738 24.3163C24.132 24.3006 24.1851 24.2698 24.2277 24.2271C24.2704 24.1844 24.301 24.1312 24.3165 24.0729C24.3321 24.0146 24.332 23.9532 24.3163 23.8949Z" fill="black"/>
  <path d="M9.375 27.25C9.10306 27.25 8.83722 27.3306 8.61111 27.4817C8.385 27.6328 8.20876 27.8475 8.10468 28.0988C8.00061 28.35 7.97337 28.6265 8.02641 28.8932C8.07945 29.1599 8.21039 29.4049 8.40267 29.5972C8.59495 29.7895 8.83993 29.9205 9.10665 29.9736C9.37336 30.0266 9.64982 29.9994 9.90107 29.8954C10.1523 29.7913 10.3671 29.6151 10.5182 29.389C10.6693 29.1629 10.75 28.8971 10.75 28.6252C10.75 28.2605 10.6051 27.9107 10.3473 27.6528C10.0894 27.3949 9.73969 27.25 9.375 27.25ZM9.375 29.3125C9.23902 29.3125 9.10609 29.2722 8.99303 29.1966C8.87997 29.1211 8.79185 29.0137 8.73982 28.8881C8.68779 28.7624 8.67418 28.6242 8.70072 28.4908C8.72726 28.3574 8.79276 28.2349 8.88893 28.1388C8.98509 28.0427 9.10761 27.9772 9.24098 27.9507C9.37435 27.9242 9.51259 27.9378 9.63821 27.9899C9.76384 28.0419 9.8712 28.1301 9.94672 28.2432C10.0222 28.3563 10.0625 28.4892 10.0625 28.6252C10.0623 28.8074 9.98976 28.9821 9.86087 29.111C9.73199 29.2399 9.55725 29.3123 9.375 29.3125Z" fill="black"/>
  <path d="M9.375 9.03125C9.28383 9.03125 9.1964 9.06747 9.13194 9.13194C9.06747 9.1964 9.03125 9.28383 9.03125 9.375V26.5936C9.14476 26.5736 9.25975 26.5632 9.375 26.5625C9.49025 26.5632 9.60524 26.5736 9.71875 26.5936V9.71875H26.5936C26.5736 9.6053 26.5632 9.49037 26.5625 9.37517C26.5632 9.25987 26.5736 9.14482 26.5936 9.03125H9.375Z" fill="black"/>
  <path d="M28.625 10.75C28.897 10.75 29.1628 10.6694 29.3889 10.5183C29.615 10.3672 29.7913 10.1524 29.8954 9.90115C29.9994 9.64989 30.0266 9.37342 29.9736 9.10669C29.9205 8.83996 29.7895 8.59496 29.5972 8.40267C29.4049 8.21038 29.1599 8.07944 28.8931 8.0264C28.6264 7.97336 28.3499 8.00062 28.0987 8.10472C27.8474 8.20881 27.6327 8.38508 27.4816 8.61122C27.3306 8.83736 27.25 9.10322 27.25 9.37517C27.25 9.55573 27.2856 9.73453 27.3547 9.90135C27.4238 10.0682 27.525 10.2197 27.6527 10.3474C27.7804 10.4751 27.932 10.5763 28.0988 10.6454C28.2656 10.7145 28.4444 10.75 28.625 10.75ZM28.625 8.6875C28.761 8.6875 28.8939 8.72782 29.0069 8.80335C29.12 8.87889 29.2081 8.98625 29.2602 9.11187C29.3122 9.23748 29.3258 9.3757 29.2993 9.50906C29.2728 9.64242 29.2073 9.76492 29.1112 9.86108C29.0151 9.95723 28.8926 10.0227 28.7592 10.0493C28.6259 10.0758 28.4877 10.0622 28.362 10.0102C28.2364 9.95821 28.129 9.87012 28.0534 9.75708C27.9779 9.64404 27.9375 9.51114 27.9375 9.37517C27.9377 9.19288 28.0102 9.0181 28.1391 8.88918C28.2679 8.76026 28.4427 8.68773 28.625 8.6875Z" fill="black"/>
  <path d="M28.625 27.25C28.3531 27.25 28.0872 27.3306 27.8611 27.4817C27.635 27.6328 27.4588 27.8475 27.3547 28.0988C27.2506 28.35 27.2234 28.6265 27.2764 28.8932C27.3294 29.1599 27.4604 29.4049 27.6527 29.5972C27.8449 29.7895 28.0899 29.9205 28.3566 29.9736C28.6234 30.0266 28.8998 29.9994 29.1511 29.8954C29.4023 29.7913 29.6171 29.6151 29.7682 29.389C29.9193 29.1629 30 28.8971 30 28.6252C30 28.2605 29.8551 27.9107 29.5973 27.6528C29.3394 27.3949 28.9897 27.25 28.625 27.25ZM28.625 29.3125C28.489 29.3125 28.3561 29.2722 28.243 29.1966C28.13 29.1211 28.0418 29.0137 27.9898 28.8881C27.9378 28.7624 27.9242 28.6242 27.9507 28.4908C27.9773 28.3574 28.0428 28.2349 28.1389 28.1388C28.2351 28.0427 28.3576 27.9772 28.491 27.9507C28.6244 27.9242 28.7626 27.9378 28.8882 27.9899C29.0138 28.0419 29.1212 28.1301 29.1967 28.2432C29.2722 28.3563 29.3125 28.4892 29.3125 28.6252C29.3123 28.8074 29.2398 28.9821 29.1109 29.111C28.982 29.2399 28.8073 29.3123 28.625 29.3125Z" fill="black"/>
</svg>