<svg xmlns="http://www.w3.org/2000/svg" width="41" height="40" viewBox="0 0 41 40" fill="none">
  <rect width="41" height="40" rx="4" fill="white"/>
  <path d="M25.2684 26H16.738C16.5002 25.9903 16.2666 25.9338 16.0507 25.8337C15.8347 25.7337 15.6406 25.592 15.4795 25.4169C15.3184 25.2417 15.1934 25.0365 15.1116 24.813C15.0299 24.5895 14.993 24.352 15.0031 24.1142V22.0571C15.0031 21.9207 15.0573 21.7899 15.1537 21.6934C15.2502 21.597 15.381 21.5428 15.5174 21.5428C15.6538 21.5428 15.7846 21.597 15.8811 21.6934C15.9775 21.7899 16.0317 21.9207 16.0317 22.0571V24.1142C16.014 24.3179 16.0753 24.5205 16.203 24.6801C16.3307 24.8397 16.5149 24.944 16.7174 24.9714H25.2684C25.4709 24.944 25.6551 24.8397 25.7828 24.6801C25.9105 24.5205 25.9718 24.3179 25.9541 24.1142V22.0571C25.9541 21.9207 26.0083 21.7899 26.1047 21.6934C26.2012 21.597 26.332 21.5428 26.4684 21.5428C26.6048 21.5428 26.7356 21.597 26.8321 21.6934C26.9285 21.7899 26.9827 21.9207 26.9827 22.0571V24.1142C27.0032 24.5911 26.8346 25.0567 26.5136 25.4099C26.1925 25.763 25.745 25.9751 25.2684 26Z" fill="black"/>
  <path d="M21.0031 22.5715C20.9356 22.5718 20.8686 22.5587 20.8062 22.5328C20.7438 22.5068 20.6872 22.4687 20.6397 22.4207L17.8968 19.6778C17.806 19.5803 17.7565 19.4513 17.7589 19.3181C17.7612 19.1849 17.8152 19.0577 17.9094 18.9635C18.0036 18.8693 18.1308 18.8153 18.264 18.8129C18.3972 18.8106 18.5262 18.8601 18.6237 18.9509L21.0031 21.3304L23.3826 18.9509C23.4801 18.8601 23.6091 18.8106 23.7423 18.8129C23.8755 18.8153 24.0026 18.8693 24.0969 18.9635C24.1911 19.0577 24.2451 19.1849 24.2474 19.3181C24.2498 19.4513 24.2003 19.5803 24.1095 19.6778L21.3666 22.4207C21.3191 22.4687 21.2625 22.5068 21.2001 22.5328C21.1377 22.5587 21.0707 22.5718 21.0031 22.5715Z" fill="black"/>
  <path d="M21.0031 22.5715C20.8672 22.5697 20.7374 22.515 20.6414 22.4189C20.5453 22.3228 20.4905 22.193 20.4888 22.0572V14.5142C20.4888 14.3778 20.543 14.247 20.6394 14.1506C20.7359 14.0541 20.8667 13.9999 21.0031 13.9999C21.1395 13.9999 21.2703 14.0541 21.3667 14.1506C21.4632 14.247 21.5174 14.3778 21.5174 14.5142V22.0572C21.5156 22.193 21.4608 22.3228 21.3648 22.4189C21.2687 22.515 21.1389 22.5697 21.0031 22.5715Z" fill="black"/>
</svg>