<svg xmlns="http://www.w3.org/2000/svg" width="32" height="32" viewBox="0 0 32 32" fill="none">
<rect width="32" height="32" rx="4" fill="#EAAF0F"/>
<path d="M19.3327 7.36035L16.5329 15.0402H23.0659L11.867 24.6406L14.6667 16.9608H8.13371L19.3327 7.36035ZM23.0651 15.0402H23.0694H23.0651ZM19.3326 6.40002C19.12 6.40002 18.9074 6.47473 18.735 6.62233L7.53603 16.2228C7.23417 16.4811 7.12218 16.9068 7.25605 17.2866C7.38992 17.6664 7.74076 17.9193 8.1336 17.9193H13.3192L10.9927 24.3031C10.844 24.7108 10.9813 25.1707 11.326 25.4227C11.4879 25.5415 11.6778 25.6 11.8659 25.6C12.0785 25.6 12.2911 25.5253 12.4635 25.3777L23.6371 15.7998C23.8576 15.6243 24.0002 15.3498 24.0002 15.0402C24.0002 14.5101 23.5846 14.0799 23.0693 14.0799H17.8792L20.2066 7.69704C20.3554 7.28934 20.218 6.82943 19.8733 6.57742C19.7105 6.45952 19.5216 6.40002 19.3326 6.40002Z" fill="white"/>
</svg>