<svg width="13" height="17" viewBox="0 0 13 17" fill="none" xmlns="http://www.w3.org/2000/svg">
<path d="M6.19043 0.0501709C6.23622 0.0501122 6.2814 0.059873 6.32324 0.0784912C6.36484 0.0970084 6.40211 0.123804 6.43262 0.157593L6.43359 0.158569L6.4375 0.162476C6.44033 0.165613 6.44464 0.170946 6.4502 0.177124C6.4613 0.189476 6.4777 0.207902 6.49902 0.231812C6.54195 0.279957 6.60552 0.350337 6.68555 0.441772C6.84569 0.624752 7.07411 0.890006 7.34863 1.21814C7.89765 1.87438 8.63022 2.78403 9.36328 3.79529C10.0961 4.8062 10.832 5.92099 11.3887 6.99646C11.9446 8.07049 12.334 9.10808 12.334 10.0072C12.3339 13.3972 9.5794 16.1497 6.19043 16.1498C2.80139 16.1498 0.049862 13.3972 0.0498047 10.0072C0.0498047 9.10809 0.43821 8.07051 0.994141 6.99646C1.55082 5.92099 2.28674 4.8062 3.01953 3.79529C3.75259 2.78403 4.48516 1.87438 5.03418 1.21814C5.3087 0.890006 5.53712 0.624753 5.69727 0.441772C5.77729 0.350339 5.84086 0.279957 5.88379 0.231812C5.90511 0.207905 5.92151 0.189476 5.93262 0.177124C5.93817 0.170946 5.94248 0.165613 5.94531 0.162476L5.94922 0.158569C5.97956 0.124763 6.01716 0.0971234 6.05859 0.0784912C6.09994 0.0599448 6.14511 0.0504411 6.19043 0.0501709ZM6.19043 0.890991C5.92144 1.19018 4.81602 2.42635 3.54688 4.17712C2.82571 5.17198 2.10706 6.26397 1.57324 7.29529C1.03871 8.32805 0.701172 9.29964 0.701172 10.0072C0.701227 13.0439 3.15494 15.4984 6.19043 15.4984C9.2259 15.4984 11.6816 13.0439 11.6816 10.0072C11.6816 9.29964 11.3441 8.32805 10.8096 7.29529C10.2757 6.26396 9.5571 5.17197 8.83594 4.17712C7.56677 2.42635 6.45947 1.18993 6.19043 0.890991ZM10.3818 10.9261C10.4007 10.9288 10.4193 10.9329 10.4375 10.9388C10.4783 10.952 10.5162 10.9735 10.5488 11.0013C10.5814 11.0291 10.6085 11.0628 10.6279 11.101C10.6474 11.1391 10.6588 11.1813 10.6621 11.224C10.6654 11.2663 10.6595 11.3086 10.6465 11.349L10.6475 11.35C10.1982 12.7444 9.13621 13.8596 7.77832 14.3793C7.69768 14.4101 7.60815 14.4076 7.5293 14.3724C7.45043 14.3372 7.38835 14.2724 7.35742 14.1918C7.34204 14.1518 7.33482 14.1086 7.33594 14.0658C7.33711 14.0231 7.34688 13.9808 7.36426 13.9418C7.38167 13.9028 7.40654 13.8676 7.4375 13.8383C7.46854 13.8088 7.505 13.7852 7.54492 13.7699C8.71774 13.3211 9.63798 12.3553 10.0264 11.1498C10.0467 11.086 10.0864 11.0302 10.1396 10.9896C10.1931 10.949 10.2581 10.9257 10.3252 10.9232L10.3818 10.9261Z" fill="#EAAF0F" stroke="#EAAF0F" stroke-width="0.1"/>
</svg>
