<svg width="133" height="45" viewBox="0 0 133 45" fill="none" xmlns="http://www.w3.org/2000/svg">
<g clip-path="url(#clip0_3312_1764)">
<mask id="mask0_3312_1764" style="mask-type:luminance" maskUnits="userSpaceOnUse" x="26" y="13" width="19" height="22">
<path d="M35.2402 13.1604C30.3653 13.2868 26.5254 17.4237 26.6525 22.3916C26.7886 27.3595 33.2975 29.1208 33.4427 34.6216C38.8985 32.9777 44.427 26.8988 44.2908 21.9309C44.1637 17.0444 40.233 13.1604 35.4671 13.1604C35.3945 13.1604 35.3128 13.1604 35.2402 13.1604Z" fill="white"/>
</mask>
<g mask="url(#mask0_3312_1764)">
<path d="M44.427 13.1513H26.5254V34.6126H44.427V13.1513Z" fill="url(#paint0_linear_3312_1764)"/>
</g>
<mask id="mask1_3312_1764" style="mask-type:luminance" maskUnits="userSpaceOnUse" x="9" y="27" width="23" height="18">
<path d="M22.3947 27.4318C17.4019 27.4498 15.4864 33.899 9.95801 33.9261C11.4831 39.3728 17.4382 44.9819 22.431 45H22.4764C27.4692 44.9819 31.5089 41.0257 31.4817 36.1752C31.4635 31.3428 27.4148 27.4318 22.4401 27.4318H22.3947Z" fill="white"/>
</mask>
<g mask="url(#mask1_3312_1764)">
<path d="M31.491 27.4318H9.94922V44.991H31.491V27.4318Z" fill="url(#paint1_linear_3312_1764)"/>
</g>
<mask id="mask2_3312_1764" style="mask-type:luminance" maskUnits="userSpaceOnUse" x="12" y="0" width="23" height="18">
<path d="M21.9771 0C16.9842 0.018065 12.9446 3.97431 12.9718 8.82477C12.99 13.6752 17.0659 17.5863 22.0588 17.5682C27.0516 17.5502 28.958 11.101 34.4955 11.0739C32.9613 5.62726 27.0062 0.00903252 22.0225 0H21.9771Z" fill="white"/>
</mask>
<g mask="url(#mask2_3312_1764)">
<path d="M34.4861 0H12.9443V17.5863H34.4861V0Z" fill="url(#paint2_linear_3312_1764)"/>
</g>
<mask id="mask3_3312_1764" style="mask-type:luminance" maskUnits="userSpaceOnUse" x="0" y="10" width="18" height="22">
<path d="M0.12715 22.9968C0.25424 27.9647 4.31205 31.8938 9.18687 31.7674C14.0617 31.6409 17.9016 27.513 17.7745 22.5361C17.6475 17.5682 11.1295 15.8069 10.9843 10.3061C5.52849 11.95 5.9858e-05 18.0289 0.12715 22.9968Z" fill="white"/>
</mask>
<g mask="url(#mask3_3312_1764)">
<path d="M17.9016 10.3061H0V31.8938H17.9016V10.3061Z" fill="url(#paint3_linear_3312_1764)"/>
</g>
<path d="M51.3535 9.59253V35.6152H57.236V20.4045L65.978 33.1403L69.5819 27.8743L57.2178 9.59253H51.3535Z" fill="black"/>
<path d="M93.7839 9.59253H74.9292L67.7939 20.1515L71.3071 25.2549L74.448 20.7206V35.6242H80.3305V15.012H91.8957C92.5947 15.012 93.0577 15.5901 93.0577 16.1501V18.9502C93.0577 19.5464 92.5039 20.0522 91.8957 20.0522L83.1265 20.0341V25.4175C83.1265 25.4175 93.8293 25.4175 93.8475 25.4175C96.5345 25.4175 98.459 23.1323 98.459 20.8922V14.1178C98.459 12.0313 96.6344 9.60156 93.7748 9.60156" fill="black"/>
<path d="M124.875 14.1178C124.875 12.0313 123.051 9.60156 120.191 9.60156H100.864V35.6242H106.738V15.012H118.303C119.002 15.012 119.456 15.5901 119.456 16.1501V18.9502C119.456 19.5464 118.902 20.0522 118.303 20.0522L109.534 20.0341V25.4175C109.534 25.4175 120.236 25.4175 120.255 25.4175C122.942 25.4175 124.866 23.1323 124.866 20.8922V14.1178H124.875Z" fill="black"/>
<path d="M129.805 15.8159C128.081 15.8159 126.683 14.4249 126.683 12.7087C126.683 10.9926 128.081 9.60156 129.805 9.60156C131.53 9.60156 132.928 10.9926 132.928 12.7087C132.928 14.4249 131.53 15.8159 129.805 15.8159ZM129.805 10.0532C128.353 10.0532 127.182 11.2455 127.182 12.7087C127.182 14.172 128.353 15.3643 129.805 15.3643C131.258 15.3643 132.438 14.172 132.438 12.7087C132.438 11.2455 131.258 10.0532 129.805 10.0532ZM130.559 14.4069L129.778 13.0159H129.261V14.4069H128.789V11.0016H129.951C130.55 11.0016 131.031 11.4442 131.031 12.0223C131.031 12.5191 130.722 12.8262 130.296 12.9617L131.113 14.4159H130.559V14.4069ZM129.896 11.4171H129.261V12.6094H129.896C130.277 12.6094 130.541 12.3655 130.541 12.0132C130.541 11.661 130.277 11.4171 129.896 11.4171Z" fill="black"/>
</g>
<defs>
<linearGradient id="paint0_linear_3312_1764" x1="36.3284" y1="12.1867" x2="36.3284" y2="34.6144" gradientUnits="userSpaceOnUse">
<stop stop-color="#78CCEE"/>
<stop offset="1" stop-color="#634494"/>
</linearGradient>
<linearGradient id="paint1_linear_3312_1764" x1="9.75314" y1="36.0528" x2="31.2768" y2="36.0528" gradientUnits="userSpaceOnUse">
<stop stop-color="#354F9E"/>
<stop offset="1" stop-color="#634494"/>
</linearGradient>
<linearGradient id="paint2_linear_3312_1764" x1="12.7664" y1="8.61196" x2="34.2901" y2="8.61196" gradientUnits="userSpaceOnUse">
<stop stop-color="#45B8B6"/>
<stop offset="1" stop-color="#78CCEE"/>
</linearGradient>
<linearGradient id="paint3_linear_3312_1764" x1="8.52304" y1="31.4169" x2="8.52304" y2="11.8434" gradientUnits="userSpaceOnUse">
<stop stop-color="#354F9E"/>
<stop offset="1" stop-color="#45B8B6"/>
</linearGradient>
<clipPath id="clip0_3312_1764">
<rect width="133" height="45" fill="white"/>
</clipPath>
</defs>
</svg>
