<svg xmlns="http://www.w3.org/2000/svg" width="168" height="56" viewBox="0 0 168 56" fill="none">
  <g clip-path="url(#clip0_3053_249)">
    <mask id="mask0_3053_249" style="mask-type:luminance" maskUnits="userSpaceOnUse" x="33" y="16" width="23" height="28">
      <path d="M44.5145 16.3773C38.3569 16.5347 33.5064 21.6829 33.667 27.8651C33.839 34.0474 42.0607 36.2393 42.2441 43.0847C49.1357 41.0389 56.1189 33.4741 55.9469 27.2918C55.7864 21.2108 50.8213 16.3773 44.8012 16.3773C44.7095 16.3773 44.6063 16.3773 44.5145 16.3773Z" fill="white"/>
    </mask>
    <g mask="url(#mask0_3053_249)">
      <path d="M56.1194 16.3661H33.5068V43.0735H56.1194V16.3661Z" fill="url(#paint0_linear_3053_249)"/>
    </g>
    <mask id="mask1_3053_249" style="mask-type:luminance" maskUnits="userSpaceOnUse" x="12" y="34" width="28" height="22">
      <path d="M28.2876 34.1373C21.9809 34.1598 19.5614 42.1855 12.5781 42.2192C14.5045 48.9972 22.0268 55.9775 28.3335 56H28.3908C34.6976 55.9775 39.8003 51.0542 39.7659 45.0181C39.743 39.0044 34.6288 34.1373 28.345 34.1373H28.2876Z" fill="white"/>
    </mask>
    <g mask="url(#mask1_3053_249)">
      <path d="M39.7781 34.1373H12.5674V55.9888H39.7781V34.1373Z" fill="url(#paint1_linear_3053_249)"/>
    </g>
    <mask id="mask2_3053_249" style="mask-type:luminance" maskUnits="userSpaceOnUse" x="16" y="0" width="28" height="22">
      <path d="M27.761 0C21.4542 0.0224809 16.3515 4.94581 16.3859 10.9819C16.4088 17.0181 21.5574 21.8852 27.8642 21.8627C34.1709 21.8402 36.5789 13.8145 43.5737 13.7808C41.6358 7.00281 34.1136 0.0112405 27.8183 0H27.761Z" fill="white"/>
    </mask>
    <g mask="url(#mask2_3053_249)">
      <path d="M43.5623 0H16.3516V21.8852H43.5623V0Z" fill="url(#paint2_linear_3053_249)"/>
    </g>
    <mask id="mask3_3053_249" style="mask-type:luminance" maskUnits="userSpaceOnUse" x="0" y="12" width="23" height="28">
      <path d="M0.160919 28.6182C0.321454 34.8005 5.44711 39.6901 11.6048 39.5327C17.7624 39.3754 22.6129 34.2385 22.4524 28.045C22.2918 21.8627 14.0587 19.6708 13.8752 12.8254C6.98366 14.8711 0.000383988 22.436 0.160919 28.6182Z" fill="white"/>
    </mask>
    <g mask="url(#mask3_3053_249)">
      <path d="M22.6125 12.8254H0V39.6901H22.6125V12.8254Z" fill="url(#paint3_linear_3053_249)"/>
    </g>
    <path d="M64.8672 11.9374V44.3212H72.2977V25.3922L83.3402 41.2413L87.8925 34.6881L72.2747 11.9374H64.8672Z" fill="white"/>
    <path d="M118.464 11.9374H94.6477L85.6348 25.0775L90.0724 31.4283L94.0399 25.7856V44.3324H101.47V18.6817H116.079C116.962 18.6817 117.547 19.401 117.547 20.098V23.5825C117.547 24.3244 116.847 24.9538 116.079 24.9538L105.002 24.9314V31.6307C105.002 31.6307 118.522 31.6307 118.544 31.6307C121.939 31.6307 124.37 28.7868 124.37 25.9992V17.5689C124.37 14.9723 122.065 11.9486 118.453 11.9486" fill="white"/>
    <path d="M157.738 17.5688C157.738 14.9723 155.433 11.9486 151.821 11.9486H127.408V44.3324H134.827V18.6816H149.436C150.319 18.6816 150.892 19.401 150.892 20.0979V23.5825C150.892 24.3244 150.193 24.9538 149.436 24.9538L138.359 24.9313V31.6307C138.359 31.6307 151.878 31.6307 151.901 31.6307C155.295 31.6307 157.726 28.7868 157.726 25.9992V17.5688H157.738Z" fill="white"/>
    <path d="M163.965 19.682C161.786 19.682 160.021 17.951 160.021 15.8153C160.021 13.6796 161.786 11.9486 163.965 11.9486C166.144 11.9486 167.91 13.6796 167.91 15.8153C167.91 17.951 166.144 19.682 163.965 19.682ZM163.965 12.5106C162.13 12.5106 160.651 13.9944 160.651 15.8153C160.651 17.6363 162.13 19.12 163.965 19.12C165.8 19.12 167.29 17.6363 167.29 15.8153C167.29 13.9944 165.8 12.5106 163.965 12.5106ZM164.917 17.9285L163.931 16.1975H163.277V17.9285H162.681V13.6909H164.149C164.905 13.6909 165.513 14.2417 165.513 14.9611C165.513 15.5793 165.123 15.9615 164.584 16.1301L165.616 17.9398H164.917V17.9285ZM164.08 14.2079H163.277V15.6917H164.08C164.561 15.6917 164.894 15.3882 164.894 14.9498C164.894 14.5114 164.561 14.2079 164.08 14.2079Z" fill="white"/>
  </g>
  <defs>
    <linearGradient id="paint0_linear_3053_249" x1="45.8896" y1="15.1656" x2="45.8896" y2="43.0757" gradientUnits="userSpaceOnUse">
      <stop stop-color="#78CCEE"/>
      <stop offset="1" stop-color="#634494"/>
    </linearGradient>
    <linearGradient id="paint1_linear_3053_249" x1="12.3197" y1="44.8656" x2="39.5075" y2="44.8656" gradientUnits="userSpaceOnUse">
      <stop stop-color="#354F9E"/>
      <stop offset="1" stop-color="#634494"/>
    </linearGradient>
    <linearGradient id="paint2_linear_3053_249" x1="16.1268" y1="10.7171" x2="43.3146" y2="10.7171" gradientUnits="userSpaceOnUse">
      <stop stop-color="#45B8B6"/>
      <stop offset="1" stop-color="#78CCEE"/>
    </linearGradient>
    <linearGradient id="paint3_linear_3053_249" x1="10.7659" y1="39.0966" x2="10.7659" y2="14.7385" gradientUnits="userSpaceOnUse">
      <stop stop-color="#354F9E"/>
      <stop offset="1" stop-color="#45B8B6"/>
    </linearGradient>
    <clipPath id="clip0_3053_249">
      <rect width="168" height="56" fill="white"/>
    </clipPath>
  </defs>
</svg>