<svg width="41" height="40" viewBox="0 0 41 40" fill="none" xmlns="http://www.w3.org/2000/svg">
<rect width="41" height="40" rx="4" fill="#EAAF0F"/>
<path d="M15.6646 24.293C15.7654 24.394 15.8975 24.4443 16.0295 24.4443C16.1616 24.4443 16.2936 24.394 16.3944 24.293L24.455 16.2102V23.9271C24.455 24.2129 24.686 24.4443 24.9708 24.4443C25.2556 24.4443 25.4866 24.2129 25.4866 23.9271V14.9616C25.4866 14.6757 25.2556 14.4443 24.9708 14.4443H16.0295C15.7444 14.4443 15.5137 14.6757 15.5137 14.9616C15.5137 15.2474 15.7444 15.4788 16.0295 15.4788H23.7255L15.6646 23.5612C15.4634 23.7633 15.4634 24.0909 15.6646 24.293L15.6646 24.293Z" fill="black"/>
</svg>
