<svg width="15" height="15" viewBox="0 0 15 15" fill="none" xmlns="http://www.w3.org/2000/svg">
<path d="M0.227062 14.773C0.378621 14.9245 0.577283 15 0.775876 15C0.974469 15 1.17313 14.9245 1.32469 14.773L13.4483 2.64883V14.2241C13.4483 14.6529 13.7958 15 14.2241 15C14.6524 15 15 14.6529 15 14.2241V0.775861C15 0.347089 14.6524 0 14.2241 0H0.775862C0.34709 0 0 0.347089 0 0.775861C0 1.20463 0.34709 1.55172 0.775862 1.55172H12.3512L0.227034 13.6753C-0.0755586 13.9784 -0.0755586 14.4698 0.227034 14.7729L0.227062 14.773Z" fill="#EAAF0F"/>
</svg>
