<svg xmlns="http://www.w3.org/2000/svg" width="38" height="38" viewBox="0 0 38 38" fill="none">
  <rect width="38" height="38" rx="4" fill="white" fill-opacity="0.5"/>
  <path d="M19.0022 23.1535C20.5954 23.1535 21.7529 21.8133 21.7529 19.9681C21.7529 17.9627 20.3873 16.3452 19.2923 15.0468L19.1946 14.9296C19.1467 14.8749 19.0647 14.8368 18.9944 14.8417C18.9191 14.8417 18.8469 14.8817 18.8019 14.9394C18.629 15.167 18.4444 15.3965 18.2539 15.6319C17.3162 16.7924 16.2505 18.1101 16.2505 19.8655C16.2505 21.6209 17.4832 23.1564 19.0012 23.1564L19.0022 23.1535ZM18.6466 15.9318C18.7716 15.7794 18.8918 15.629 19.009 15.4795C20.0815 16.7523 21.2518 18.195 21.2518 19.968C21.2518 21.5309 20.3043 22.6639 19.0012 22.6639C17.6981 22.6639 16.7506 21.4058 16.7506 19.8604C16.7506 18.3151 17.7157 17.0842 18.6456 15.9297L18.6466 15.9318Z" fill="black" stroke="black" stroke-width="0.2"/>
  <path d="M11.6574 30H26.3458C26.7082 30 27.0032 29.7128 27.0032 29.3553V28.1997C27.0032 27.8422 26.7082 27.555 26.3458 27.555H26.253L26.254 11.9054H26.3468C26.7092 11.9054 27.0042 11.6183 27.0042 11.2607V10.1052C27.0042 9.74764 26.7092 9.46047 26.3468 9.46047H20.5025V8.67511C20.5025 8.29709 20.1899 7.99231 19.805 7.99231H18.1991C17.8143 7.99231 17.5017 8.29709 17.5017 8.67511V9.46047L11.6574 9.45949C11.295 9.45949 11 9.74667 11 10.1042V11.2598C11 11.6173 11.295 11.9045 11.6574 11.9045H11.7502V27.5531H11.6574C11.295 27.5531 11 27.8402 11 28.1978V29.3533C11 29.7108 11.295 29.998 11.6574 29.998L11.6574 30ZM18.0019 8.67691C18.0019 8.56946 18.0898 8.48448 18.1992 8.48448H19.8051C19.9155 8.48448 20.0024 8.56946 20.0024 8.67691V9.46227H18.0019L18.0019 8.67691ZM11.6574 11.4179C11.5725 11.4179 11.5002 11.3476 11.5002 11.2606V10.105C11.5002 10.0201 11.5725 9.94777 11.6574 9.94777H26.3458C26.4308 9.94777 26.5031 10.0181 26.5031 10.105V11.2606C26.5031 11.3456 26.4308 11.4179 26.3458 11.4179H11.6574ZM25.7539 11.9082V27.5568H12.2504V11.9052H25.7539V11.9082ZM11.5002 28.1995C11.5002 28.1145 11.5724 28.0422 11.6574 28.0422H26.3458C26.4308 28.0422 26.503 28.1126 26.503 28.1995V29.3551C26.503 29.4401 26.4308 29.5124 26.3458 29.5124H11.6574C11.5724 29.5124 11.5002 29.442 11.5002 29.3551V28.1995Z" fill="black" stroke="black" stroke-width="0.2"/>
</svg>