<svg xmlns="http://www.w3.org/2000/svg" width="38" height="38" viewBox="0 0 38 38" fill="none">
  <rect width="38" height="38" rx="4" fill="white" fill-opacity="0.5"/>
  <path d="M11.2021 14.0009C10.5419 14.0009 9.98863 14.501 9.90645 15.1451H9.07375C8.48667 15.1451 8 15.6295 8 16.2218V21.781C8 22.3733 8.48665 22.8586 9.07375 22.8586H9.90736C9.99136 23.5008 10.5429 24 11.2021 24H13.8354C14.5512 24 15.1429 23.4113 15.1429 22.6889V20.5732H22.8563V22.6889C22.8563 23.4104 23.447 24 24.1638 24H26.7952C27.4544 24 28.0068 23.5008 28.0899 22.8586H28.9262C29.5133 22.8586 30 22.3742 30 21.781L29.9991 16.2218C29.9991 15.6295 29.5124 15.1451 28.9253 15.1451H28.0899C28.0077 14.501 27.4544 14.0009 26.7943 14.0009H24.1628C23.447 14.0009 22.8554 14.5896 22.8554 15.3121V17.4296L15.1429 17.4287V15.3111C15.1429 14.5896 14.5522 14 13.8354 14L11.2021 14.0009ZM11.2021 14.6957H13.8354C14.186 14.6957 14.4544 14.966 14.4544 15.3121V22.6888C14.4544 23.0339 14.186 23.3042 13.8354 23.3042H11.2021C10.8515 23.3042 10.583 23.0339 10.583 22.6888V15.3128C10.583 14.9677 10.8515 14.6964 11.2021 14.6964V14.6957ZM24.1627 14.6957H26.7941C27.1447 14.6957 27.4159 14.966 27.4159 15.3121V22.6881C27.4159 23.0332 27.1447 23.3035 26.7941 23.3035H24.1627C23.8121 23.3035 23.5436 23.0332 23.5436 22.6881V15.3113C23.5436 14.9663 23.8121 14.695 24.1627 14.695V14.6957ZM9.0727 15.8398H9.89443V22.1631H9.0727C8.85357 22.1631 8.68649 21.9942 8.68649 21.7811L8.68741 16.222C8.68741 16.0088 8.85449 15.84 9.07361 15.84L9.0727 15.8398ZM28.1005 15.8398H28.925C29.1441 15.8398 29.3103 16.0087 29.3103 16.2218V21.781C29.3103 21.9941 29.1441 22.1629 28.925 22.1629H28.1005V15.8398ZM15.1424 18.1216H22.8558V19.8784H15.1424V18.1216Z" fill="black"/>
</svg>